<?xml version="1.0" encoding="UTF-8"?>
<!DOCTYPE svg PUBLIC "-//W3C//DTD SVG 1.1//EN" "http://www.w3.org/Graphics/SVG/1.1/DTD/svg11.dtd">
<!-- Creator: CorelDRAW X7.3 EN Portable -->
<svg xmlns="http://www.w3.org/2000/svg" xml:space="preserve" width="260.142mm" height="28.8383mm" version="1.1" style="shape-rendering:geometricPrecision; text-rendering:geometricPrecision; image-rendering:optimizeQuality; fill-rule:evenodd; clip-rule:evenodd"
viewBox="0 0 26264 2912"
 xmlns:xlink="http://www.w3.org/1999/xlink">
 <defs>
  <style type="text/css">
   <![CDATA[
    .str0 {stroke:#332C2B;stroke-width:7.69313}
    .fil0 {fill:#333333}
    .fil1 {fill:#D85A45}
    .fil2 {fill:#332C2B;fill-rule:nonzero}
    .fil3 {fill:#D85A45;fill-rule:nonzero}
   ]]>
  </style>
 </defs>
 <g id="Layer_x0020_1">
  <metadata id="CorelCorpID_0Corel-Layer"/>
  <g id="_471849712">
   <path class="fil0" d="M16315 463l0 20c0,47 48,90 96,90l40 0c1,23 10,58 14,80l31 156c5,27 15,54 15,81 -15,1 -54,15 -69,21 -109,40 -203,102 -287,180 -19,18 -74,84 -84,103 -69,-37 -153,-104 -210,-134 2,-19 10,-32 10,-53 0,-89 -115,-128 -171,-64 -23,25 -65,87 -84,115 -26,38 -35,44 -35,92 0,73 106,119 166,59l37 -52c18,12 37,23 54,36 18,13 35,23 54,36 19,13 37,23 56,35 12,7 43,29 56,33 -1,17 -23,55 -29,74 -36,98 -51,192 -51,303 0,20 4,24 4,43 -26,0 -54,7 -80,11 -25,3 -55,8 -81,12 -44,6 -124,21 -166,21 0,-36 -6,-86 -19,-108 -30,-48 -107,-61 -150,-21 -54,50 -25,124 -18,202 4,41 3,96 31,129 39,47 124,43 158,-14 13,-21 15,-32 15,-65 93,-8 193,-27 287,-40 15,-2 29,-6 43,-7 12,54 36,112 59,158 35,70 78,135 133,190 10,10 17,17 27,27 12,11 17,16 30,27 30,25 94,80 128,89 -18,36 -29,81 -45,118 -17,39 -33,76 -52,112 -41,-10 -108,-100 -183,-26 -52,51 -36,116 20,158 14,10 26,18 41,27 59,35 173,91 242,91 47,0 97,-38 97,-83 0,-81 -30,-100 -104,-117 38,-71 84,-202 97,-227 81,39 204,47 297,47 71,0 136,-15 193,-31 55,-15 110,-41 157,-66 8,5 14,11 21,19 43,45 96,109 129,158l-67 53c-10,8 -21,19 -28,31 -52,92 50,197 154,122 10,-7 21,-15 29,-22 43,-39 82,-82 123,-123 24,-24 62,-43 76,-74 30,-66 -11,-141 -100,-141 -36,0 -76,44 -100,60l-63 -76c-18,-22 -54,-57 -67,-77 4,-5 14,-13 21,-19 28,-26 58,-52 82,-82 45,-56 81,-104 115,-171 11,-23 43,-95 45,-122 40,0 117,10 180,10l84 0c0,12 -2,19 -2,27 0,5 2,18 2,30 -1,120 127,140 177,70 25,-36 16,-48 16,-97 0,-72 6,-138 16,-201 5,-35 5,-65 -13,-88 -59,-70 -148,-41 -171,14 -8,19 -18,96 -18,122 -81,0 -168,-4 -244,-10l7 -107c0,-183 -64,-335 -160,-463 -29,-38 -88,-92 -100,-111l102 -120c15,-21 48,-60 54,-83 27,6 55,39 110,13 52,-26 76,-96 38,-147 -21,-28 -92,-61 -130,-100 -87,-89 -226,18 -156,119 11,17 27,26 38,42 -7,27 -85,127 -112,154 -16,15 -26,34 -45,46 -30,-8 -170,-124 -423,-124 -25,0 -42,4 -70,4 -20,-86 -39,-177 -54,-264 -2,-13 -6,-26 -6,-40 51,0 97,-41 97,-93 0,-42 -20,-76 -55,-93 -34,-15 -79,-8 -117,-2 -70,10 -114,-15 -165,39 -9,10 -20,30 -20,49z"/>
   <path class="fil1" d="M16636 916c-106,16 -188,32 -282,87 -43,24 -77,46 -110,73 -63,52 -130,126 -170,197 -22,40 -43,81 -59,125 -35,99 -49,202 -39,319 33,381 374,699 802,660 560,-50 873,-715 501,-1190 -82,-104 -195,-183 -320,-230 -86,-33 -220,-56 -323,-41z"/>
   <path class="fil1" d="M17129 2300c3,13 73,87 87,104l81 106c-25,23 -45,48 -72,70 -19,15 -71,41 -43,88 8,13 24,24 46,23 36,-2 103,-70 124,-93 24,-26 46,-50 71,-73 37,-35 64,-39 58,-83 -3,-27 -38,-60 -90,-22 -17,13 -68,56 -74,69 -32,-37 -77,-100 -121,-152l-33 -37c-8,-7 -6,-6 -15,-11 -9,4 -10,6 -19,11z"/>
   <path class="fil1" d="M17770 1802c-137,2 -153,0 -299,-8l-3 24c141,10 166,12 300,9 -1,43 -17,148 30,165 38,14 68,-14 67,-51 -1,-66 -2,-107 5,-176 3,-27 12,-68 12,-91 0,-61 -78,-59 -93,-23 -9,23 -17,121 -19,151z"/>
   <path class="fil1" d="M16248 2624c-19,-5 -67,-35 -84,-46 -13,-8 -58,-47 -91,-8 -49,59 65,113 109,134 268,130 226,-23 188,-39 -27,-11 -77,-15 -97,-31 18,-25 114,-234 118,-273 -9,-8 -9,-7 -20,-10l-9 15c-30,77 -71,192 -114,258z"/>
   <path class="fil1" d="M15562 1841c63,-10 126,-15 189,-24 63,-8 126,-19 188,-28l-3 -23c-20,-3 -152,21 -184,26 -50,7 -145,24 -194,22 -1,-29 -6,-59 -9,-89 -3,-33 -6,-57 -33,-66 -32,-10 -57,8 -65,29 -5,15 13,149 15,174 4,32 3,62 24,76 28,18 57,7 70,-12 14,-20 5,-59 2,-85z"/>
   <path class="fil1" d="M16492 523c18,121 44,239 70,356l24 -2 -36 -175c-10,-52 -29,-131 -32,-181 18,-3 64,-6 77,-11 18,-7 34,-31 27,-57 -15,-54 -80,-32 -133,-28 -51,3 -126,-13 -126,48 -1,66 77,50 129,50z"/>
   <path class="fil1" d="M15778 1087c6,4 24,24 57,46 35,24 173,117 197,123 7,-8 8,-10 11,-24 -23,-10 -102,-62 -128,-79 -22,-14 -41,-27 -62,-41 -21,-15 -44,-29 -63,-44 5,-3 35,-35 32,-65 -3,-30 -28,-49 -60,-42 -26,5 -38,30 -52,49 -14,19 -79,101 -81,121 -3,33 15,55 45,57 48,3 62,-56 104,-101z"/>
   <path class="fil1" d="M17351 776c-10,11 -57,89 -84,126 -16,21 -31,39 -48,59 -13,15 -40,41 -50,56 5,9 10,12 20,16 28,-17 167,-195 181,-241 23,10 38,27 63,37 58,23 103,-54 39,-92 -74,-44 -73,-57 -114,-87 -52,-38 -112,34 -60,81 16,15 35,30 53,45z"/>
  </g>
  <path class="fil2" d="M567 2427l0 -1978 241 0c107,0 193,20 258,61 64,41 113,101 145,181 33,81 55,181 65,302 11,121 16,261 16,421 0,192 -6,352 -18,481 -11,129 -35,232 -70,311 -36,79 -84,135 -144,170 -61,34 -141,51 -241,51l-252 0zm-567 -2395l0 2812 894 0c189,0 346,-28 469,-86 124,-58 222,-146 296,-264 73,-118 125,-269 155,-451 30,-183 46,-398 46,-644 0,-208 -12,-396 -36,-564 -24,-168 -69,-312 -136,-431 -67,-120 -161,-212 -282,-276 -120,-64 -279,-96 -476,-96l-930 0zm3207 1753l0 417c0,58 -11,108 -32,150 -21,42 -48,76 -80,102 -33,27 -69,46 -109,58 -39,11 -77,17 -114,17 -73,0 -126,-29 -158,-86 -31,-58 -47,-128 -47,-209 0,-95 24,-170 71,-225 47,-55 126,-94 236,-118 35,-8 73,-20 115,-37 42,-17 81,-40 118,-69zm-993 -410l489 0 0 -59c0,-84 21,-151 63,-201 42,-50 105,-75 189,-75 92,0 157,23 195,69 38,46 57,110 57,191 0,71 -16,125 -47,162 -32,36 -88,65 -170,86l-307 83c-95,26 -175,57 -242,91 -67,34 -122,76 -166,128 -43,51 -75,113 -96,185 -21,72 -32,158 -32,258 0,71 9,142 28,215 18,72 47,137 86,195 40,57 92,103 158,136 66,32 146,49 240,49 132,0 239,-17 321,-49 83,-33 156,-105 219,-215l8 0c8,37 16,74 26,112 9,38 23,74 41,108l520 0c-26,-63 -44,-122 -53,-177 -9,-55 -14,-132 -14,-232l0 -1115c0,-95 -10,-182 -30,-262 -19,-80 -57,-149 -112,-207 -55,-58 -133,-102 -232,-134 -100,-31 -231,-47 -394,-47 -103,0 -199,11 -290,33 -90,23 -169,59 -236,111 -67,51 -120,118 -160,200 -39,83 -59,186 -59,310l0 51zm1899 -650l0 2119 544 0 0 -1406c0,-234 96,-351 287,-351 82,0 141,22 178,65 36,44 55,121 55,231l0 1461 543 0 0 -1571c0,-213 -46,-367 -139,-461 -94,-95 -227,-142 -400,-142 -118,0 -224,24 -315,73 -92,48 -167,125 -225,230l-8 0 0 -248 -520 0zm3057 1895l0 224 520 0 0 -2812 -543 0 0 890 -8 0c-58,-84 -123,-147 -195,-189 -72,-42 -160,-63 -262,-63 -223,0 -388,87 -493,262 -105,174 -157,459 -157,853 0,394 52,676 157,847 105,170 270,256 493,256 110,0 203,-20 278,-59 74,-40 142,-109 202,-209l8 0zm-595 -835c0,-231 18,-405 54,-522 35,-117 112,-176 230,-176 121,0 199,59 234,176 36,117 54,291 54,522 0,231 -18,405 -54,522 -35,117 -113,175 -234,175 -118,0 -195,-58 -230,-175 -36,-117 -54,-291 -54,-522zm2467 0l0 417c0,58 -11,108 -32,150 -21,42 -48,76 -81,102 -32,27 -69,46 -108,58 -39,11 -77,17 -114,17 -74,0 -126,-29 -158,-86 -31,-58 -47,-128 -47,-209 0,-95 24,-170 71,-225 47,-55 126,-94 236,-118 34,-8 72,-20 114,-37 42,-17 82,-40 119,-69zm-993 -410l488 0 0 -59c0,-84 21,-151 63,-201 42,-50 105,-75 189,-75 92,0 157,23 196,69 38,46 57,110 57,191 0,71 -16,125 -48,162 -31,36 -88,65 -169,86l-307 83c-95,26 -176,57 -243,91 -67,34 -122,76 -165,128 -43,51 -76,113 -97,185 -21,72 -31,158 -31,258 0,71 9,142 27,215 19,72 48,137 87,195 40,57 92,103 158,136 65,32 145,49 240,49 131,0 238,-17 321,-49 83,-33 156,-105 219,-215l8 0c8,37 16,74 25,112 9,38 23,74 42,108l520 0c-27,-63 -44,-122 -54,-177 -9,-55 -13,-132 -13,-232l0 -1115c0,-95 -10,-182 -30,-262 -20,-80 -57,-149 -112,-207 -55,-58 -133,-102 -233,-134 -99,-31 -231,-47 -394,-47 -102,0 -199,11 -289,33 -91,23 -170,59 -237,111 -66,51 -120,118 -159,200 -39,83 -59,186 -59,310l0 51zm1899 -650l0 2119 543 0 0 -1406c0,-234 96,-351 288,-351 81,0 141,22 177,65 37,44 55,121 55,231l0 1461 544 0 0 -1571c0,-213 -46,-367 -140,-461 -93,-95 -226,-142 -400,-142 -118,0 -223,24 -315,73 -92,48 -167,125 -224,230l-8 0 0 -248 -520 0zm1989 -725l0 465 544 0 0 -465 -544 0zm0 725l0 2119 544 0 0 -2119 -544 0z"/>
  <path class="fil3 str0" d="M15103 861l308 -386c-268,-272 -670,-441 -1064,-441 -824,0 -1458,603 -1458,1391 0,795 627,1406 1438,1406 398,0 804,-185 1088,-473l-312 -346c-205,201 -484,323 -748,323 -520,0 -926,-402 -926,-918 0,-512 406,-914 926,-914 272,0 551,138 748,358z"/>
  <path class="fil3 str0" d="M19054 745l-287 1517 -8 0 -304 -1517 -567 0 548 2119 630 0 532 -2119 -544 0zm765 -725l0 465 543 0 0 -465 -543 0zm0 725l0 2119 543 0 0 -2119 -543 0zm2013 1895l0 224 520 0 0 -2813 -544 0 0 891 -8 0c-58,-84 -123,-147 -195,-189 -72,-42 -159,-63 -262,-63 -223,0 -387,87 -492,262 -105,174 -158,459 -158,853 0,394 53,676 158,847 105,170 269,256 492,256 111,0 203,-20 278,-59 75,-40 142,-109 203,-209l8 0zm-595 -835c0,-232 18,-406 53,-522 35,-117 112,-176 231,-176 120,0 198,59 234,176 35,116 53,290 53,522 0,231 -18,405 -53,522 -36,116 -114,175 -234,175 -119,0 -196,-59 -231,-175 -35,-117 -53,-291 -53,-522zm2013 1059l567 0 0 -2789 -417 0c-29,158 -98,272 -207,343 -109,71 -258,106 -447,106l-51 0 0 370 555 0 0 1970zm1797 -1867c0,-79 3,-152 9,-219 7,-67 21,-125 42,-175 21,-50 52,-89 92,-116 41,-28 96,-42 164,-42 65,0 119,14 159,42 41,27 73,65 95,114 22,49 37,107 45,175 8,69 12,142 12,221 0,189 -24,324 -71,406 -47,81 -127,122 -240,122 -110,0 -189,-41 -237,-122 -47,-82 -70,-217 -70,-406zm43 1217l-544 0c3,134 26,247 69,337 43,91 101,163 172,217 70,54 153,90 246,110 93,20 190,30 289,30 229,0 407,-42 534,-124 128,-83 221,-195 280,-337 59,-142 94,-306 106,-491 12,-185 18,-377 18,-577 0,-171 -9,-335 -28,-492 -18,-158 -58,-297 -120,-416 -61,-120 -150,-215 -266,-288 -115,-72 -270,-108 -465,-108 -315,0 -544,85 -687,256 -143,171 -215,418 -215,741 0,126 13,242 38,348 25,107 64,199 118,276 54,78 124,138 211,181 86,44 191,65 315,65 126,0 233,-21 321,-65 88,-43 155,-100 203,-171l8 0 0 134c0,102 -4,197 -12,284 -8,86 -24,161 -49,224 -25,63 -60,113 -105,148 -44,35 -105,53 -181,53 -95,0 -161,-29 -199,-88 -38,-60 -57,-142 -57,-247z"/>
 </g>
</svg>
