<?xml version="1.0" encoding="UTF-8"?>
<!DOCTYPE svg PUBLIC "-//W3C//DTD SVG 1.1//EN" "http://www.w3.org/Graphics/SVG/1.1/DTD/svg11.dtd">
<!-- Creator: CorelDRAW X7.3 EN Portable -->
<svg xmlns="http://www.w3.org/2000/svg" xml:space="preserve" width="75.4492mm" height="72.744mm" version="1.1" style="shape-rendering:geometricPrecision; text-rendering:geometricPrecision; image-rendering:optimizeQuality; fill-rule:evenodd; clip-rule:evenodd"
viewBox="0 0 5647 5444"
 xmlns:xlink="http://www.w3.org/1999/xlink">
 <defs>
  <style type="text/css">
   <![CDATA[
    .fil0 {fill:#333333}
    .fil1 {fill:#D85A45}
   ]]>
  </style>
 </defs>
 <g id="Layer_x0020_1">
  <metadata id="CorelCorpID_0Corel-Layer"/>
  <g id="_469307592">
   <path class="fil0" d="M2040 212l0 45c0,103 109,201 216,201l90 0c1,50 21,128 29,178l69 348c12,61 36,120 36,181 -36,3 -122,33 -156,46 -242,90 -453,228 -639,402 -42,39 -166,188 -188,229 -154,-81 -341,-230 -469,-298 4,-43 23,-72 23,-119 0,-198 -257,-284 -382,-143 -51,57 -145,195 -189,258 -57,84 -77,97 -77,205 0,162 236,266 370,132l84 -117c39,27 82,52 120,81 40,29 79,52 121,80 43,28 81,52 123,78 29,17 98,66 127,74 -3,37 -51,123 -66,164 -79,220 -112,429 -112,677 0,45 7,54 7,97 -57,0 -120,15 -177,23 -56,8 -124,19 -181,27 -99,14 -278,46 -371,46 0,-79 -13,-190 -43,-240 -65,-108 -238,-135 -333,-47 -121,113 -56,277 -41,451 8,92 7,215 69,288 87,104 276,96 352,-30 30,-49 33,-72 33,-146 209,-18 431,-61 640,-89 34,-5 66,-13 97,-16 28,121 80,250 131,353 78,156 176,301 299,423 21,22 37,38 59,60 26,26 38,36 67,60 67,56 209,178 285,198 -39,81 -65,182 -100,265 -37,88 -74,170 -116,249 -91,-21 -240,-223 -408,-58 -116,115 -81,260 45,354 30,22 57,39 90,59 133,79 388,203 541,203 105,0 216,-84 216,-186 0,-179 -67,-222 -231,-260 84,-159 186,-450 216,-506 181,86 455,104 662,104 158,0 304,-34 430,-69 124,-34 246,-91 352,-147 18,12 30,26 46,43 96,100 215,242 289,351l-149 119c-24,17 -49,43 -64,70 -115,205 112,438 345,271 20,-15 44,-32 63,-49 96,-86 182,-182 275,-275 53,-53 137,-95 170,-165 67,-146 -24,-313 -224,-313 -80,0 -169,98 -223,134l-141 -171c-39,-49 -119,-126 -149,-171 8,-12 32,-30 46,-43 63,-58 130,-115 183,-182 102,-126 181,-232 257,-383 26,-51 97,-211 102,-271 89,0 259,23 402,23l186 0c0,25 -5,42 -5,58 1,13 5,41 5,68 -2,267 284,312 394,157 58,-81 37,-108 37,-216 0,-161 12,-308 34,-450 12,-77 14,-145 -28,-196 -130,-157 -330,-91 -381,32 -18,42 -41,212 -41,271 -181,0 -373,-8 -544,-22l15 -238c0,-408 -143,-748 -357,-1035 -63,-84 -196,-205 -223,-245l228 -270c35,-47 108,-133 121,-184 60,14 124,88 245,28 117,-57 170,-212 84,-327 -47,-63 -204,-137 -289,-224 -195,-199 -504,42 -349,267 26,37 62,56 86,92 -16,62 -191,284 -251,344 -34,35 -58,75 -99,103 -67,-18 -380,-276 -945,-276 -56,0 -93,8 -156,8 -45,-191 -87,-394 -119,-588 -5,-30 -14,-59 -15,-90 114,0 216,-92 216,-208 0,-93 -44,-170 -122,-206 -76,-35 -177,-18 -261,-5 -156,23 -254,-35 -367,86 -22,23 -47,68 -47,110z"/>
   <path class="fil1" d="M2757 1223c-237,35 -418,70 -629,193 -95,55 -172,103 -245,164 -140,115 -291,281 -379,440 -49,88 -96,179 -131,278 -79,222 -111,451 -89,712 73,850 836,1559 1791,1473 1250,-113 1946,-1596 1117,-2656 -182,-233 -436,-409 -715,-514 -190,-71 -490,-123 -720,-90z"/>
   <path class="fil1" d="M3858 4312c6,27 162,193 193,230l182 237c-57,52 -101,108 -162,158 -41,33 -158,90 -96,195 18,29 54,53 104,51 81,-3 228,-156 276,-208 53,-58 102,-112 158,-162 84,-77 144,-87 131,-186 -8,-59 -86,-133 -201,-48 -39,29 -152,124 -167,154 -71,-82 -171,-224 -270,-339l-74 -82c-16,-17 -12,-15 -31,-25 -22,9 -24,12 -43,25z"/>
   <path class="fil1" d="M5287 3199c-304,6 -341,1 -666,-17l-8 53c316,22 370,27 670,20 -2,97 -37,332 67,369 86,30 152,-32 150,-115 -3,-147 -5,-239 11,-392 6,-61 26,-151 26,-203 0,-137 -174,-132 -206,-51 -21,51 -39,270 -44,336z"/>
   <path class="fil1" d="M1892 5033c-42,-9 -150,-77 -188,-101 -29,-19 -129,-106 -202,-19 -110,132 144,251 243,299 598,291 504,-51 419,-86 -61,-25 -173,-34 -216,-69 39,-56 253,-522 262,-610 -19,-17 -20,-16 -43,-21l-20 32c-68,173 -159,429 -255,575z"/>
   <path class="fil1" d="M360 3287c141,-23 283,-34 422,-53 141,-19 282,-43 421,-63l-7 -52c-46,-6 -341,48 -411,58 -112,15 -324,53 -432,50 -3,-65 -13,-133 -20,-198 -9,-75 -15,-129 -76,-149 -69,-22 -125,18 -143,66 -12,33 28,331 34,386 7,73 5,139 53,171 61,41 127,15 155,-26 32,-45 13,-132 4,-190z"/>
   <path class="fil1" d="M2437 345c40,272 97,533 156,796l52 -5 -80 -392c-23,-115 -63,-292 -70,-404 39,-5 143,-11 171,-23 40,-15 75,-70 60,-127 -32,-120 -177,-72 -296,-64 -114,9 -282,-28 -282,108 -1,147 171,111 289,111z"/>
   <path class="fil1" d="M842 1605c13,9 55,52 128,102 78,54 386,261 439,275 16,-19 19,-23 26,-54 -52,-23 -229,-138 -287,-176 -48,-32 -91,-60 -138,-93 -48,-33 -98,-64 -141,-97 12,-6 78,-79 72,-144 -5,-69 -63,-112 -134,-96 -59,13 -84,68 -115,110 -32,44 -177,226 -182,269 -7,74 34,123 102,128 106,7 136,-125 230,-224z"/>
   <path class="fil1" d="M4352 910c-21,25 -125,198 -187,281 -36,47 -69,88 -106,132 -30,33 -89,92 -111,124 11,21 21,28 42,36 64,-36 373,-435 404,-538 54,24 87,61 143,83 129,51 229,-120 85,-205 -165,-98 -161,-126 -254,-193 -116,-85 -250,75 -134,179 36,33 79,68 118,101z"/>
  </g>
 </g>
</svg>
